<?xml version="1.0" encoding="UTF-8" standalone="no"?>
<!DOCTYPE svg PUBLIC "-//W3C//DTD SVG 1.1//EN"
 "http://www.w3.org/Graphics/SVG/1.1/DTD/svg11.dtd">
<!-- Generated by graphviz version 2.38.0 (20140413.2041)
 -->
<!-- Title: %3 Pages: 1 -->
<svg width="912pt" height="740pt"
 viewBox="0.00 0.00 911.60 740.00" xmlns="http://www.w3.org/2000/svg" xmlns:xlink="http://www.w3.org/1999/xlink">
<g id="graph0" class="graph" transform="scale(1 1) rotate(0) translate(4 736)">
<title>%3</title>
<polygon fill="white" stroke="none" points="-4,4 -4,-736 907.598,-736 907.598,4 -4,4"/>
<!-- 0 -->
<g id="node1" class="node"><title>0</title>
<ellipse fill="none" stroke="black" cx="393.598" cy="-627" rx="27" ry="18"/>
<text text-anchor="middle" x="393.598" y="-623.3" font-family="Times New Roman,serif" font-size="14.00">0</text>
</g>
<!-- 1 -->
<g id="node2" class="node"><title>1</title>
<ellipse fill="none" stroke="black" cx="463.598" cy="-540" rx="27" ry="18"/>
<text text-anchor="middle" x="463.598" y="-536.3" font-family="Times New Roman,serif" font-size="14.00">1</text>
</g>
<!-- 0&#45;&gt;1 -->
<g id="edge2" class="edge"><title>0&#45;&gt;1</title>
<path fill="none" stroke="black" d="M396.494,-608.914C398.913,-598.574 403.202,-585.58 410.598,-576 416.635,-568.18 424.938,-561.547 433.181,-556.227"/>
<polygon fill="black" stroke="black" points="435.194,-559.102 441.993,-550.977 431.611,-553.089 435.194,-559.102"/>
<text text-anchor="middle" x="436.598" y="-579.8" font-family="Times New Roman,serif" font-size="14.00">0.982591</text>
</g>
<!-- 2 -->
<g id="node3" class="node"><title>2</title>
<ellipse fill="none" stroke="black" cx="588.598" cy="-453" rx="27" ry="18"/>
<text text-anchor="middle" x="588.598" y="-449.3" font-family="Times New Roman,serif" font-size="14.00">2</text>
</g>
<!-- 0&#45;&gt;2 -->
<g id="edge3" class="edge"><title>0&#45;&gt;2</title>
<path fill="none" stroke="black" d="M416.589,-617.082C431.462,-610.815 450.905,-601.665 466.598,-591 513.679,-559.003 525.37,-548.716 560.598,-504 566.439,-496.585 571.796,-487.799 576.226,-479.676"/>
<polygon fill="black" stroke="black" points="579.456,-481.053 580.974,-470.568 573.248,-477.818 579.456,-481.053"/>
<text text-anchor="middle" x="571.598" y="-536.3" font-family="Times New Roman,serif" font-size="14.00">0.234439</text>
</g>
<!-- 3 -->
<g id="node4" class="node"><title>3</title>
<ellipse fill="none" stroke="black" cx="504.598" cy="-366" rx="27" ry="18"/>
<text text-anchor="middle" x="504.598" y="-362.3" font-family="Times New Roman,serif" font-size="14.00">3</text>
</g>
<!-- 0&#45;&gt;3 -->
<g id="edge4" class="edge"><title>0&#45;&gt;3</title>
<path fill="none" stroke="black" d="M392.439,-608.787C391.295,-582.044 391.699,-529.394 408.598,-489 425.419,-448.791 459.298,-410.698 481.971,-388.093"/>
<polygon fill="black" stroke="black" points="484.482,-390.532 489.189,-381.04 479.59,-385.525 484.482,-390.532"/>
<text text-anchor="middle" x="437.598" y="-492.8" font-family="Times New Roman,serif" font-size="14.00">0.0836634</text>
</g>
<!-- 4 -->
<g id="node5" class="node"><title>4</title>
<ellipse fill="none" stroke="black" cx="305.598" cy="-279" rx="27" ry="18"/>
<text text-anchor="middle" x="305.598" y="-275.3" font-family="Times New Roman,serif" font-size="14.00">4</text>
</g>
<!-- 0&#45;&gt;4 -->
<g id="edge5" class="edge"><title>0&#45;&gt;4</title>
<path fill="none" stroke="black" d="M367.914,-621.245C330.028,-612.578 263.598,-590.347 263.598,-541 263.598,-541 263.598,-541 263.598,-365 263.598,-342.501 275.571,-319.796 286.732,-303.518"/>
<polygon fill="black" stroke="black" points="289.74,-305.332 292.768,-295.179 284.07,-301.228 289.74,-305.332"/>
<text text-anchor="middle" x="289.598" y="-449.3" font-family="Times New Roman,serif" font-size="14.00">0.268085</text>
</g>
<!-- 5 -->
<g id="node6" class="node"><title>5</title>
<ellipse fill="none" stroke="black" cx="686.598" cy="-192" rx="27" ry="18"/>
<text text-anchor="middle" x="686.598" y="-188.3" font-family="Times New Roman,serif" font-size="14.00">5</text>
</g>
<!-- 0&#45;&gt;5 -->
<g id="edge6" class="edge"><title>0&#45;&gt;5</title>
<path fill="none" stroke="black" d="M418.07,-619.258C431.678,-615.732 448.972,-611.618 464.598,-609 505.335,-602.175 615.578,-614.426 649.598,-591 670.756,-576.43 746.72,-409.008 752.598,-384 756.259,-368.424 755.567,-363.722 752.598,-348 743.44,-299.505 717.68,-247.599 701.183,-217.847"/>
<polygon fill="black" stroke="black" points="704.151,-215.984 696.185,-208.998 698.056,-219.426 704.151,-215.984"/>
<text text-anchor="middle" x="774.598" y="-405.8" font-family="Times New Roman,serif" font-size="14.00">0.0568682</text>
</g>
<!-- 6 -->
<g id="node7" class="node"><title>6</title>
<ellipse fill="none" stroke="black" cx="363.598" cy="-105" rx="27" ry="18"/>
<text text-anchor="middle" x="363.598" y="-101.3" font-family="Times New Roman,serif" font-size="14.00">6</text>
</g>
<!-- 0&#45;&gt;6 -->
<g id="edge7" class="edge"><title>0&#45;&gt;6</title>
<path fill="none" stroke="black" d="M367.21,-622.149C306.013,-612.476 159.598,-584.762 159.598,-541 159.598,-541 159.598,-541 159.598,-408.5 159.598,-341.855 156.006,-320.209 186.598,-261 220.789,-194.823 244.893,-186.85 303.598,-141 312.839,-133.782 323.716,-126.998 333.653,-121.36"/>
<polygon fill="black" stroke="black" points="335.367,-124.411 342.441,-116.524 331.992,-118.279 335.367,-124.411"/>
<text text-anchor="middle" x="179.598" y="-362.3" font-family="Times New Roman,serif" font-size="14.00">0.3568</text>
</g>
<!-- 7 -->
<g id="node8" class="node"><title>7</title>
<ellipse fill="none" stroke="black" cx="363.598" cy="-18" rx="27" ry="18"/>
<text text-anchor="middle" x="363.598" y="-14.3" font-family="Times New Roman,serif" font-size="14.00">t</text>
</g>
<!-- 0&#45;&gt;7 -->
<g id="edge1" class="edge"><title>0&#45;&gt;7</title>
<path fill="none" stroke="black" d="M366.595,-626.34C325.981,-625.791 247.74,-620.549 189.598,-591 170.825,-581.459 166.578,-575.969 155.598,-558 88.228,-447.753 70.5977,-409.202 70.5977,-280 70.5977,-280 70.5977,-280 70.5977,-104 70.5977,-51.2196 248.184,-29.1024 326.847,-21.8945"/>
<polygon fill="black" stroke="black" points="327.167,-25.38 336.819,-21.0123 326.55,-18.4072 327.167,-25.38"/>
<text text-anchor="middle" x="98.5977" y="-318.8" font-family="Times New Roman,serif" font-size="14.00">0.421287</text>
</g>
<!-- 1&#45;&gt;2 -->
<g id="edge9" class="edge"><title>1&#45;&gt;2</title>
<path fill="none" stroke="black" d="M474.777,-523.399C483.125,-512.625 495.34,-498.569 508.598,-489 522.614,-478.883 540.015,-470.835 555.005,-465.02"/>
<polygon fill="black" stroke="black" points="556.287,-468.278 564.448,-461.522 553.855,-461.714 556.287,-468.278"/>
<text text-anchor="middle" x="534.598" y="-492.8" font-family="Times New Roman,serif" font-size="14.00">0.168737</text>
</g>
<!-- 1&#45;&gt;3 -->
<g id="edge10" class="edge"><title>1&#45;&gt;3</title>
<path fill="none" stroke="black" d="M467.114,-522.054C472.571,-496.103 483.599,-444.998 494.598,-402 495.279,-399.337 496.017,-396.568 496.774,-393.807"/>
<polygon fill="black" stroke="black" points="500.183,-394.612 499.524,-384.038 493.445,-392.716 500.183,-394.612"/>
<text text-anchor="middle" x="514.598" y="-449.3" font-family="Times New Roman,serif" font-size="14.00">0.0576453</text>
</g>
<!-- 1&#45;&gt;4 -->
<g id="edge11" class="edge"><title>1&#45;&gt;4</title>
<path fill="none" stroke="black" d="M440.815,-530.06C427.489,-524.065 410.92,-515.215 398.598,-504 339.805,-450.493 317.149,-354.079 309.305,-307.145"/>
<polygon fill="black" stroke="black" points="312.74,-306.458 307.732,-297.121 305.825,-307.543 312.74,-306.458"/>
<text text-anchor="middle" x="362.098" y="-405.8" font-family="Times New Roman,serif" font-size="14.00">0.20314</text>
</g>
<!-- 1&#45;&gt;5 -->
<g id="edge12" class="edge"><title>1&#45;&gt;5</title>
<path fill="none" stroke="black" d="M486.334,-529.903C493.14,-527.264 500.643,-524.439 507.598,-522 589.269,-493.359 636.677,-496.19 671.598,-417 703.006,-345.775 687.146,-320.715 691.598,-243 691.979,-236.344 692.07,-234.65 691.598,-228 691.415,-225.428 691.158,-222.759 690.855,-220.092"/>
<polygon fill="black" stroke="black" points="694.306,-219.493 689.526,-210.038 687.367,-220.41 694.306,-219.493"/>
<text text-anchor="middle" x="719.598" y="-362.3" font-family="Times New Roman,serif" font-size="14.00">0.0368273</text>
</g>
<!-- 1&#45;&gt;6 -->
<g id="edge13" class="edge"><title>1&#45;&gt;6</title>
<path fill="none" stroke="black" d="M464.181,-521.958C464.487,-485.205 459.962,-397.797 413.598,-348 396.646,-329.793 375.086,-350.222 360.598,-330 338.558,-299.239 351.758,-185.816 359.358,-133.172"/>
<polygon fill="black" stroke="black" points="362.832,-133.609 360.836,-123.204 355.908,-132.583 362.832,-133.609"/>
<text text-anchor="middle" x="386.598" y="-318.8" font-family="Times New Roman,serif" font-size="14.00">0.345729</text>
</g>
<!-- 1&#45;&gt;7 -->
<g id="edge8" class="edge"><title>1&#45;&gt;7</title>
<path fill="none" stroke="black" d="M436.464,-539.392C388.969,-538.477 291.117,-529.161 241.598,-471 186.188,-405.92 217.943,-159.258 263.598,-87 279.592,-61.6858 308.804,-43.4714 331.541,-32.3032"/>
<polygon fill="black" stroke="black" points="333.263,-35.3617 340.832,-27.9481 330.291,-29.0235 333.263,-35.3617"/>
<text text-anchor="middle" x="242.598" y="-275.3" font-family="Times New Roman,serif" font-size="14.00">0.366829</text>
</g>
<!-- 2&#45;&gt;3 -->
<g id="edge15" class="edge"><title>2&#45;&gt;3</title>
<path fill="none" stroke="black" d="M565.241,-443.776C541.654,-435.238 508.191,-422.39 504.598,-417 500.178,-410.371 498.928,-402.068 499.142,-394.144"/>
<polygon fill="black" stroke="black" points="502.633,-394.412 500.124,-384.118 495.666,-393.729 502.633,-394.412"/>
<text text-anchor="middle" x="530.598" y="-405.8" font-family="Times New Roman,serif" font-size="14.00">0.709233</text>
</g>
<!-- 2&#45;&gt;4 -->
<g id="edge16" class="edge"><title>2&#45;&gt;4</title>
<path fill="none" stroke="black" d="M566.574,-442.557C560.461,-440.021 553.799,-437.336 547.598,-435 524.317,-426.231 517.846,-425.852 494.598,-417 422.574,-389.575 399.607,-383.978 344.598,-330 336.583,-322.135 328.763,-312.6 322.256,-303.974"/>
<polygon fill="black" stroke="black" points="324.961,-301.745 316.228,-295.747 319.315,-305.882 324.961,-301.745"/>
<text text-anchor="middle" x="438.598" y="-362.3" font-family="Times New Roman,serif" font-size="14.00">0.457467</text>
</g>
<!-- 2&#45;&gt;5 -->
<g id="edge17" class="edge"><title>2&#45;&gt;5</title>
<path fill="none" stroke="black" d="M598.213,-436.108C601.345,-430.282 604.541,-423.516 606.598,-417 620.369,-373.363 595.68,-353.379 620.598,-315 628.858,-302.277 640.076,-308.809 649.598,-297 667.666,-274.59 677.27,-242.673 682.121,-220.121"/>
<polygon fill="black" stroke="black" points="685.579,-220.674 684.083,-210.185 678.712,-219.318 685.579,-220.674"/>
<text text-anchor="middle" x="646.598" y="-318.8" font-family="Times New Roman,serif" font-size="14.00">0.384181</text>
</g>
<!-- 2&#45;&gt;6 -->
<g id="edge18" class="edge"><title>2&#45;&gt;6</title>
<path fill="none" stroke="black" d="M581.747,-435.471C572.956,-414.684 556.887,-378.076 540.598,-348 527.854,-324.47 522.544,-319.837 508.598,-297 490.006,-266.556 488.339,-257.023 467.598,-228 438.083,-186.7 426.56,-179.604 393.598,-141 390.178,-136.994 386.533,-132.735 383.006,-128.618"/>
<polygon fill="black" stroke="black" points="385.623,-126.292 376.457,-120.977 380.308,-130.848 385.623,-126.292"/>
<text text-anchor="middle" x="537.598" y="-275.3" font-family="Times New Roman,serif" font-size="14.00">0.0551206</text>
</g>
<!-- 2&#45;&gt;7 -->
<g id="edge14" class="edge"><title>2&#45;&gt;7</title>
<path fill="none" stroke="black" d="M602.594,-437.528C608.537,-431.288 615.489,-423.861 621.598,-417 648.239,-387.08 649.11,-373.989 679.598,-348 752.947,-285.474 865.598,-332.882 865.598,-236.5 865.598,-236.5 865.598,-236.5 865.598,-104 865.598,-56.8555 516.965,-29.2562 400.772,-21.367"/>
<polygon fill="black" stroke="black" points="400.799,-17.861 390.587,-20.6857 400.332,-24.8454 400.799,-17.861"/>
<text text-anchor="middle" x="884.598" y="-231.8" font-family="Times New Roman,serif" font-size="14.00">0.1871</text>
</g>
<!-- 3&#45;&gt;4 -->
<g id="edge20" class="edge"><title>3&#45;&gt;4</title>
<path fill="none" stroke="black" d="M483.859,-354.401C470.971,-347.674 454.144,-338.639 439.598,-330 429.105,-323.768 427.631,-320.217 416.598,-315 392.203,-303.465 363.053,-294.44 340.747,-288.446"/>
<polygon fill="black" stroke="black" points="341.582,-285.046 331.022,-285.906 339.814,-291.819 341.582,-285.046"/>
<text text-anchor="middle" x="465.598" y="-318.8" font-family="Times New Roman,serif" font-size="14.00">0.115297</text>
</g>
<!-- 3&#45;&gt;5 -->
<g id="edge21" class="edge"><title>3&#45;&gt;5</title>
<path fill="none" stroke="black" d="M518.572,-350.164C538.056,-329.649 574.701,-291.675 607.598,-261 625.518,-244.29 646.581,-226.234 662.45,-212.93"/>
<polygon fill="black" stroke="black" points="664.794,-215.532 670.231,-206.438 660.31,-210.157 664.794,-215.532"/>
<text text-anchor="middle" x="633.598" y="-275.3" font-family="Times New Roman,serif" font-size="14.00">0.113734</text>
</g>
<!-- 3&#45;&gt;6 -->
<g id="edge22" class="edge"><title>3&#45;&gt;6</title>
<path fill="none" stroke="black" d="M504.112,-347.771C502.934,-337.113 499.755,-323.827 491.598,-315 475,-297.038 459.043,-311.833 439.598,-297 416.466,-279.355 414.475,-269.558 402.598,-243 383.543,-200.392 391.856,-185.444 377.598,-141 376.649,-138.042 375.57,-134.977 374.443,-131.948"/>
<polygon fill="black" stroke="black" points="377.675,-130.601 370.775,-122.561 371.155,-133.149 377.675,-130.601"/>
<text text-anchor="middle" x="435.098" y="-231.8" font-family="Times New Roman,serif" font-size="14.00">0.00639702</text>
</g>
<!-- 3&#45;&gt;7 -->
<g id="edge19" class="edge"><title>3&#45;&gt;7</title>
<path fill="none" stroke="black" d="M529.59,-358.546C557.676,-349.805 601.912,-331.21 621.598,-297 629.578,-283.132 627.63,-275.819 621.598,-261 597.365,-201.47 469.651,-94.3199 419.598,-54 411.227,-47.2573 401.477,-40.7593 392.481,-35.2309"/>
<polygon fill="black" stroke="black" points="394.194,-32.1774 383.815,-30.0527 390.604,-38.1865 394.194,-32.1774"/>
<text text-anchor="middle" x="615.598" y="-188.3" font-family="Times New Roman,serif" font-size="14.00">0.0311799</text>
</g>
<!-- 4&#45;&gt;5 -->
<g id="edge24" class="edge"><title>4&#45;&gt;5</title>
<path fill="none" stroke="black" d="M331.041,-272.62C363.453,-265.763 421.195,-253.533 470.598,-243 501.716,-236.366 509.365,-234.073 540.598,-228 586.215,-219.13 598.869,-222.608 643.598,-210 647.401,-208.928 651.331,-207.64 655.198,-206.258"/>
<polygon fill="black" stroke="black" points="656.468,-209.52 664.576,-202.701 653.985,-202.975 656.468,-209.52"/>
<text text-anchor="middle" x="566.598" y="-231.8" font-family="Times New Roman,serif" font-size="14.00">0.703142</text>
</g>
<!-- 4&#45;&gt;6 -->
<g id="edge25" class="edge"><title>4&#45;&gt;6</title>
<path fill="none" stroke="black" d="M299.798,-261.08C293.528,-239.89 285.893,-202.864 297.598,-174 305.683,-154.061 322.732,-136.747 337.476,-124.581"/>
<polygon fill="black" stroke="black" points="339.672,-127.306 345.359,-118.367 335.339,-121.809 339.672,-127.306"/>
<text text-anchor="middle" x="323.598" y="-188.3" font-family="Times New Roman,serif" font-size="14.00">0.355157</text>
</g>
<!-- 4&#45;&gt;7 -->
<g id="edge23" class="edge"><title>4&#45;&gt;7</title>
<path fill="none" stroke="black" d="M293.327,-262.708C274.51,-237.301 242.327,-184.849 258.598,-141 274.476,-98.2102 312.832,-60.3618 338.521,-38.5663"/>
<polygon fill="black" stroke="black" points="340.901,-41.1404 346.373,-32.068 336.437,-35.7479 340.901,-41.1404"/>
<text text-anchor="middle" x="281.098" y="-144.8" font-family="Times New Roman,serif" font-size="14.00">0.72551</text>
</g>
<!-- 5&#45;&gt;6 -->
<g id="edge27" class="edge"><title>5&#45;&gt;6</title>
<path fill="none" stroke="black" d="M664.491,-181.583C657.843,-178.936 650.484,-176.186 643.598,-174 557.327,-146.615 453.133,-123.972 399.448,-113.047"/>
<polygon fill="black" stroke="black" points="399.899,-109.568 389.405,-111.021 398.515,-116.43 399.899,-109.568"/>
<text text-anchor="middle" x="603.598" y="-144.8" font-family="Times New Roman,serif" font-size="14.00">0.0852916</text>
</g>
<!-- 5&#45;&gt;7 -->
<g id="edge26" class="edge"><title>5&#45;&gt;7</title>
<path fill="none" stroke="black" d="M680.695,-174.189C669.319,-144.493 641.357,-83.1438 595.598,-54 563.981,-33.8638 457.915,-24.5906 400.787,-20.9685"/>
<polygon fill="black" stroke="black" points="400.912,-17.4697 390.718,-20.3565 400.488,-24.4568 400.912,-17.4697"/>
<text text-anchor="middle" x="680.598" y="-101.3" font-family="Times New Roman,serif" font-size="14.00">0.343129</text>
</g>
<!-- 6&#45;&gt;7 -->
<g id="edge28" class="edge"><title>6&#45;&gt;7</title>
<path fill="none" stroke="black" d="M363.598,-86.799C363.598,-75.1626 363.598,-59.5479 363.598,-46.2368"/>
<polygon fill="black" stroke="black" points="367.098,-46.1754 363.598,-36.1754 360.098,-46.1755 367.098,-46.1754"/>
<text text-anchor="middle" x="389.598" y="-57.8" font-family="Times New Roman,serif" font-size="14.00">0.815378</text>
</g>
<!-- 8 -->
<g id="node9" class="node"><title>8</title>
<ellipse fill="none" stroke="black" cx="476.598" cy="-714" rx="27" ry="18"/>
<text text-anchor="middle" x="476.598" y="-710.3" font-family="Times New Roman,serif" font-size="14.00">s</text>
</g>
<!-- 8&#45;&gt;0 -->
<g id="edge29" class="edge"><title>8&#45;&gt;0</title>
<path fill="none" stroke="black" d="M456.088,-701.978C445.849,-695.821 433.733,-687.483 424.598,-678 417.625,-670.761 411.432,-661.699 406.45,-653.286"/>
<polygon fill="black" stroke="black" points="409.483,-651.538 401.54,-644.528 403.377,-654.962 409.483,-651.538"/>
<text text-anchor="middle" x="443.598" y="-666.8" font-family="Times New Roman,serif" font-size="14.00">1.2292</text>
</g>
<!-- 8&#45;&gt;1 -->
<g id="edge30" class="edge"><title>8&#45;&gt;1</title>
<path fill="none" stroke="black" d="M475.304,-695.879C473.045,-666.001 468.368,-604.113 465.659,-568.274"/>
<polygon fill="black" stroke="black" points="469.13,-567.759 464.887,-558.052 462.15,-568.287 469.13,-567.759"/>
<text text-anchor="middle" x="496.598" y="-623.3" font-family="Times New Roman,serif" font-size="14.00">0.246609</text>
</g>
<!-- 8&#45;&gt;2 -->
<g id="edge31" class="edge"><title>8&#45;&gt;2</title>
<path fill="none" stroke="black" d="M493.333,-699.367C522.082,-674.734 579.85,-619.612 601.598,-558 610.55,-532.638 604.831,-501.892 598.397,-480.434"/>
<polygon fill="black" stroke="black" points="601.658,-479.143 595.243,-470.711 595,-481.303 601.658,-479.143"/>
<text text-anchor="middle" x="619.598" y="-579.8" font-family="Times New Roman,serif" font-size="14.00">0.826025</text>
</g>
<!-- 8&#45;&gt;3 -->
<g id="edge32" class="edge"><title>8&#45;&gt;3</title>
<path fill="none" stroke="black" d="M499.985,-705.005C539.74,-689.959 619.141,-653.223 649.598,-591 669.373,-550.598 778.888,-653.253 624.598,-435 603.915,-405.743 566.417,-387.457 538.824,-377.311"/>
<polygon fill="black" stroke="black" points="539.751,-373.928 529.156,-373.936 537.444,-380.537 539.751,-373.928"/>
<text text-anchor="middle" x="727.598" y="-536.3" font-family="Times New Roman,serif" font-size="14.00">0.378659</text>
</g>
<!-- 8&#45;&gt;4 -->
<g id="edge33" class="edge"><title>8&#45;&gt;4</title>
<path fill="none" stroke="black" d="M449.924,-710.547C384.712,-703.315 214.736,-676.877 107.598,-591 72.4486,-562.826 67.5856,-547.423 55.5977,-504 36.9579,-436.482 47.5928,-425.825 137.598,-348 183.608,-308.216 208.281,-319.982 264.598,-297 267.501,-295.815 270.516,-294.578 273.536,-293.334"/>
<polygon fill="black" stroke="black" points="275.155,-296.452 283.06,-289.398 272.481,-289.983 275.155,-296.452"/>
<text text-anchor="middle" x="81.5977" y="-492.8" font-family="Times New Roman,serif" font-size="14.00">0.185212</text>
</g>
<!-- 8&#45;&gt;5 -->
<g id="edge34" class="edge"><title>8&#45;&gt;5</title>
<path fill="none" stroke="black" d="M503.557,-712.242C585.748,-709.207 827.598,-694.618 827.598,-628 827.598,-628 827.598,-628 827.598,-278 827.598,-229.017 764.413,-207.524 722.638,-198.667"/>
<polygon fill="black" stroke="black" points="723.276,-195.225 712.788,-196.725 721.923,-202.093 723.276,-195.225"/>
<text text-anchor="middle" x="831.098" y="-449.3" font-family="Times New Roman,serif" font-size="14.00">0</text>
</g>
<!-- 8&#45;&gt;6 -->
<g id="edge35" class="edge"><title>8&#45;&gt;6</title>
<path fill="none" stroke="black" d="M449.755,-711.055C349.484,-703.437 2.59772,-673.773 2.59772,-628 2.59772,-628 2.59772,-628 2.59772,-452 2.59772,-429.773 -3.54408,-423.048 3.59772,-402 48.1557,-270.681 103.237,-253.873 216.598,-174 252.584,-148.644 299.533,-128.869 330.577,-117.333"/>
<polygon fill="black" stroke="black" points="331.863,-120.589 340.063,-113.88 329.469,-114.011 331.863,-120.589"/>
<text text-anchor="middle" x="32.5977" y="-405.8" font-family="Times New Roman,serif" font-size="14.00">0.0247056</text>
</g>
</g>
</svg>
